HIERARCHY
ROOT Hips
{
	OFFSET 0.000000 0.000000 0.000000
	CHANNELS 6 Xposition Yposition Zposition Zrotation Yrotation Xrotation 
	JOINT LHipJoint
	{
		OFFSET 0.000000 0.000000 0.000000
		CHANNELS 3 Zrotation Yrotation Xrotation
		JOINT LeftUpLeg
		{
			OFFSET 1.363060 -1.794630 0.839290
			CHANNELS 3 Zrotation Yrotation Xrotation
			JOINT LeftLeg
			{
				OFFSET 2.448110 -6.726130 0.000000
				CHANNELS 3 Zrotation Yrotation Xrotation
				JOINT LeftFoot
				{
					OFFSET 2.562200 -7.039590 0.000000
					CHANNELS 3 Zrotation Yrotation Xrotation
					JOINT LeftToeBase
					{
						OFFSET 0.157640 -0.433110 2.322550
						CHANNELS 3 Zrotation Yrotation Xrotation
						End Site
						{
							OFFSET 0.000000 0.000000 0.000000
						}
					}
				}
			}
		}
	}
	JOINT RHipJoint
	{
		OFFSET 0.000000 0.000000 0.000000
		CHANNELS 3 Zrotation Yrotation Xrotation
		JOINT RightUpLeg
		{
			OFFSET -1.305520 -1.794630 0.839290
			CHANNELS 3 Zrotation Yrotation Xrotation
			JOINT RightLeg
			{
				OFFSET -2.542530 -6.985550 0.000000
				CHANNELS 3 Zrotation Yrotation Xrotation
				JOINT RightFoot
				{
					OFFSET -2.568260 -7.056230 0.000000
					CHANNELS 3 Zrotation Yrotation Xrotation
					JOINT RightToeBase
					{
						OFFSET -0.164730 -0.452590 2.363150
						CHANNELS 3 Zrotation Yrotation Xrotation
						End Site
						{
							OFFSET 0.000000 0.000000 0.000000
						}
					}
				}
			}
		}
	}
}
MOTION
Frames: 22
Frame Time: 0.008333
3.179617 17.192345 0.886718 -162.512428 -86.322160 164.797351 -9.735411 1.273739 2.125469 -15.183405 4.795242 -25.070493 -2.427249 -0.283454 15.377705 1.819726 8.936385 -10.529372 -0.447699 0.000000 -25.113100 10.622939 -4.066234 -2.413134 0.581537 -19.014624 3.754510 -0.026429 -2.847098 35.666638 -0.332034 9.936677 26.734867 5.668000 0.000001 -88.014600
2.941153 17.154515 0.872508 -167.324749 -86.278590 169.361704 -9.815094 1.381745 2.066771 -15.307746 4.880240 -24.661389 -2.406569 -0.132153 16.762850 1.799191 8.857283 -10.697221 -0.489300 0.000000 -24.214700 10.736822 -3.924808 -2.556512 -0.360453 -19.824022 2.665129 -0.244480 -2.909492 38.689103 -0.578452 9.554116 28.902126 5.866200 0.000000 -86.340500
2.704821 17.115419 0.855710 -173.035754 -86.244995 174.863913 -9.910188 1.483659 1.974325 -15.537248 5.199661 -24.414758 -2.403970 0.020756 18.269728 1.764669 8.678903 -10.924041 -0.538600 -0.000000 -23.160799 10.817985 -3.781346 -2.669045 -1.215354 -20.511779 1.448411 -0.427777 -2.967740 41.699591 -0.830273 8.586427 30.600591 5.623100 -0.000000 -83.650500
2.470973 17.076304 0.836808 -179.208882 -86.236250 -179.131864 -10.010922 1.568130 1.854329 -15.833701 5.688280 -24.288244 -2.410983 0.166928 19.860131 1.720364 8.424441 -11.213133 -0.595001 0.000000 -21.953500 10.876704 -3.654535 -2.751383 -1.947327 -21.071834 0.113664 -0.576234 -3.038347 44.652927 -1.076339 7.053103 31.699383 4.917500 0.000000 -80.248000
2.239802 17.038337 0.816344 174.601688 -86.257232 -173.073092 -10.098470 1.632627 1.715214 -16.157276 6.272682 -24.229250 -2.419980 0.299918 21.481687 1.672443 8.126826 -11.563937 -0.657500 0.000000 -20.611500 10.932386 -3.552098 -2.805920 -2.528454 -21.501377 -1.324210 -0.697249 -3.131524 47.502489 -1.307970 5.046522 32.109077 3.813200 -0.000000 -76.491800
2.011199 17.002758 0.795199 168.866898 -86.296270 -167.431863 -10.155641 1.684210 1.567330 -16.467672 6.887790 -24.188218 -2.426198 0.417361 23.076931 1.627299 7.819495 -11.975322 -0.725200 0.000001 -19.171100 11.001718 -3.468625 -2.835204 -2.934043 -21.791126 -2.847770 -0.803079 -3.248157 50.203258 -1.518666 2.713060 31.792019 2.442300 -0.000000 -72.719100
1.785110 16.970603 0.774023 163.812667 -86.336442 -162.440612 -10.176987 1.732114 1.422238 -16.740048 7.469987 -24.109709 -2.428010 0.518861 24.576640 1.591118 7.539474 -12.440084 -0.797900 -0.000000 -17.692100 11.088480 -3.391286 -2.845044 -3.163564 -21.938570 -4.432998 -0.904746 -3.382518 52.711594 -1.703556 0.230470 30.758639 0.975500 -0.000000 -69.181700
1.561406 16.942886 0.754012 159.816134 -86.346935 -158.481674 -10.171400 1.783525 1.287142 -16.947501 7.990524 -23.957269 -2.426256 0.605838 25.924927 1.567323 7.310060 -12.952514 -0.876000 -0.000000 -16.239500 11.182879 -3.308235 -2.836734 -3.208268 -21.920944 -6.062365 -1.009081 -3.524933 54.992471 -1.859376 -2.238403 29.051774 -0.425400 0.000000 -65.878000
1.339509 16.920155 0.735466 156.688684 -86.330594 -155.372253 -10.149346 1.838562 1.170565 -17.094279 8.397849 -23.676251 -2.422043 0.676101 27.059486 1.559309 7.158665 -13.498777 -0.960800 0.000000 -14.893500 11.273265 -3.214838 -2.817152 -3.104558 -21.759825 -7.702402 -1.113100 -3.667267 56.998491 -1.984155 -4.543253 26.750326 -1.620301 0.000000 -62.985599
1.119204 16.902819 0.719085 154.482975 -86.280158 -153.174010 -10.122861 1.895706 1.074502 -17.176031 8.679804 -23.237805 -2.416742 0.728791 27.942630 1.567844 7.096080 -14.067795 -1.053900 -0.000000 -13.719600 11.347812 -3.109721 -2.787951 -2.870932 -21.458638 -9.327163 -1.209967 -3.801571 58.695992 -2.076615 -6.578415 23.937675 -2.518800 0.000000 -60.356200
0.900027 16.891128 0.705334 153.167653 -86.196288 -151.861518 -10.100634 1.952686 0.999303 -17.193722 8.832671 -22.621899 -2.411155 0.762923 28.549571 1.592970 7.128316 -14.646461 -1.156900 -0.000000 -12.774599 11.398037 -2.994051 -2.749616 -2.529100 -21.027767 -10.906585 -1.288831 -3.919968 60.048561 -2.138002 -8.280606 20.729588 -3.082100 -0.000000 -58.026100
0.681440 16.884971 0.694484 152.664677 -86.082294 -151.361295 -10.087035 2.007784 0.943211 -17.153081 8.864393 -21.820699 -2.405611 0.778189 28.870627 1.633907 7.255529 -15.220319 -1.270500 -0.000000 -12.099800 11.419953 -2.869952 -2.703123 -2.104135 -20.486680 -12.415838 -1.337849 -4.016925 61.036519 -2.169149 -9.610884 17.228917 -3.309000 0.000000 -55.738300
0.463159 16.884153 0.686670 152.904335 -85.942323 -151.608886 -10.083919 2.060066 0.903091 -17.058952 8.793497 -20.839350 -2.399693 0.775310 28.909120 1.688986 7.472837 -15.771715 -1.394000 0.000000 -11.720400 11.412133 -2.738617 -2.647698 -1.613940 -19.851920 -13.833293 -1.346680 -4.086770 61.643407 -2.175022 -10.573839 13.577031 -3.244500 0.000000 -53.519800
0.244746 16.888280 0.681801 153.789554 -85.782230 -152.508958 -10.090485 2.109839 0.875262 -16.917805 8.645740 -19.692518 -2.392562 0.755772 28.680616 1.755545 7.769214 -16.281370 -1.524900 0.000000 -11.643600 11.376135 -2.601281 -2.582911 -1.074096 -19.146388 -15.147318 -1.308735 -4.126285 61.870834 -2.161433 -11.195975 9.904242 -2.955500 0.000000 -51.230700
0.025955 16.896851 0.679535 155.209077 -85.609256 -153.949936 -10.104321 2.157549 0.854830 -16.736058 8.452989 -18.403725 -2.383204 0.721491 28.208320 1.829767 8.127108 -16.727965 -1.657899 -0.000000 -11.857700 11.315634 -2.458749 -2.508979 -0.495637 -18.395044 -16.356103 -1.222534 -4.134552 61.733880 -2.136056 -11.527777 6.337563 -2.521501 0.000000 -48.749400
-0.193206 16.909291 0.679409 157.049872 -85.433379 -155.820337 -10.123640 2.204483 0.838266 -16.516731 8.247667 -17.001302 -2.370399 0.675189 27.525673 1.906872 8.523613 -17.091779 -1.786200 0.000001 -12.333299 11.234179 -2.312204 -2.424550 0.118448 -17.617370 -17.462627 -1.092598 -4.111574 61.254608 -2.108826 -11.645234 2.993393 -2.022100 0.000000 -46.121100
-0.412879 16.924948 0.680697 159.187061 -85.267371 -157.993488 -10.146646 2.251918 0.821559 -16.262053 8.064040 -15.514607 -2.353401 0.619458 26.667893 1.980886 8.929031 -17.353420 -1.900200 -0.000001 -13.028400 11.136069 -2.163948 -2.330194 0.765044 -16.837808 -18.475472 -0.926995 -4.060132 60.466783 -2.088125 -11.622731 -0.051855 -1.517100 -0.000000 -43.284600
-0.633124 16.943295 0.682565 161.486378 -85.120725 -160.329780 -10.171293 2.300341 0.799068 -15.977730 7.938083 -13.972431 -2.332428 0.556167 25.664999 2.045237 9.309941 -17.494160 -1.989200 -0.000000 -13.888000 11.026164 -2.016113 -2.226260 1.438088 -16.073182 -19.411162 -0.736389 -3.984643 59.406652 -2.081776 -11.536106 -2.736437 -1.048900 -0.000000 -40.419000
-0.853684 16.963521 0.684147 163.834346 -85.009805 -162.717248 -10.198637 2.351560 0.769197 -15.661754 7.891060 -12.399137 -2.307794 0.488670 24.556417 2.093635 9.633834 -17.503843 -2.043800 -0.000000 -14.869600 10.906179 -1.871628 -2.113728 2.135399 -15.337067 -20.273731 -0.530614 -3.888594 58.109016 -2.094962 -11.447072 -5.064969 -0.633600 0.000001 -37.516000
-1.074334 16.984961 0.684605 166.138969 -84.947316 -165.064160 -10.229544 2.406957 0.729456 -15.313643 7.941738 -10.814549 -2.280725 0.419678 23.372983 2.120288 9.869950 -17.374958 -2.055700 0.000000 -15.933601 10.777918 -1.732472 -1.994524 2.850088 -14.640497 -21.068346 -0.317841 -3.775515 56.605727 -2.130935 -11.400949 -7.058518 -0.273500 -0.000000 -34.692300
-1.295145 17.007038 0.683068 168.272581 -84.937372 -167.236519 -10.263143 2.467709 0.678386 -14.943069 8.098820 -9.236099 -2.253304 0.350714 22.134162 2.121549 9.997410 -17.102627 -2.020100 -0.000000 -17.047300 10.643912 -1.599011 -1.869393 3.566250 -13.987841 -21.808944 -0.103848 -3.648786 54.929220 -2.190000 -11.418173 -8.758860 0.038600 -0.000000 -32.009901
-1.515810 17.028939 0.678998 170.209390 -84.993419 -169.212117 -10.300948 2.535699 0.617576 -14.544573 8.353380 -7.673615 -2.226752 0.285276 20.871507 2.095163 10.000664 -16.693794 -1.936900 0.000000 -18.218801 10.504118 -1.471192 -1.741010 4.277058 -13.383559 -22.485819 0.108600 -3.508526 53.095039 -2.271709 -11.506718 -10.228663 0.315601 0.000000 -29.426601
